<mxfile host="app.diagrams.net" modified="2023-11-27T08:29:02.437Z" agent="Mozilla/5.0 (Macintosh; Intel Mac OS X 10_15_7) AppleWebKit/537.36 (KHTML, like Gecko) Chrome/119.0.0.0 Safari/537.36" version="22.1.4" etag="0m8K60s7I9WCA65CooN4" type="github">
  <diagram name="Page-1" id="IVafOc8LlgsAC4KL6odO">
    <mxGraphModel>
      <root>
        <mxCell id="0" />
        <mxCell id="1" parent="0" />
      </root>
    </mxGraphModel>
  </diagram>
</mxfile>
